<svg width="60" height="60" viewBox="0 0 60 60" fill="none" xmlns="http://www.w3.org/2000/svg">
<circle cx="30" cy="30" r="30" fill="#FFFAF3"/>
<path d="M30.6924 47.576C28.0364 47.576 25.5884 47.16 23.3484 46.328C21.1404 45.464 19.2044 44.248 17.5404 42.68C15.9084 41.112 14.6284 39.272 13.7004 37.16C12.8044 35.048 12.3564 32.728 12.3564 30.2C12.3564 27.672 12.8044 25.352 13.7004 23.24C14.6284 21.128 15.9244 19.288 17.5884 17.72C19.2524 16.152 21.2044 14.952 23.4444 14.12C25.6844 13.256 28.1484 12.824 30.8364 12.824C33.8124 12.824 36.4844 13.32 38.8524 14.312C41.2524 15.304 43.2684 16.744 44.9004 18.632L39.9084 23.24C38.6924 21.96 37.3644 21.016 35.9244 20.408C34.4844 19.768 32.9164 19.448 31.2204 19.448C29.5884 19.448 28.1004 19.704 26.7564 20.216C25.4124 20.728 24.2444 21.464 23.2524 22.424C22.2924 23.384 21.5404 24.52 20.9964 25.832C20.4844 27.144 20.2284 28.6 20.2284 30.2C20.2284 31.768 20.4844 33.208 20.9964 34.52C21.5404 35.832 22.2924 36.984 23.2524 37.976C24.2444 38.936 25.3964 39.672 26.7084 40.184C28.0524 40.696 29.5244 40.952 31.1244 40.952C32.6604 40.952 34.1484 40.712 35.5884 40.232C37.0604 39.72 38.4844 38.872 39.8604 37.688L44.2764 43.304C42.4524 44.68 40.3244 45.736 37.8924 46.472C35.4924 47.208 33.0924 47.576 30.6924 47.576ZM44.2764 43.304L37.1724 42.296V29.672H44.2764V43.304Z" fill="black"/>
</svg>
